<?xml version="1.0" encoding="utf-8"?>
<!-- Generator: Adobe Illustrator 12.0.0, SVG Export Plug-In  -->
<!DOCTYPE svg PUBLIC "-//W3C//DTD SVG 1.1//EN" "http://www.w3.org/Graphics/SVG/1.1/DTD/svg11.dtd" [
	<!ENTITY ns_flows "http://ns.adobe.com/Flows/1.0/">
	<!ENTITY ns_svg "http://www.w3.org/2000/svg">
	<!ENTITY ns_xlink "http://www.w3.org/1999/xlink">
]>
<svg  version="1.1" xmlns="&ns_svg;" xmlns:xlink="&ns_xlink;" xmlns:a="http://ns.adobe.com/AdobeSVGViewerExtensions/3.0/"
	 width="586" height="387" viewBox="-0.34 -0.962 586 387" enable-background="new -0.34 -0.962 586 387" xml:space="preserve">
<defs>
</defs>
<path fill="#127CC1" d="M582.576,109.591C555.024-24.297,295.146-32.776,127.627,69.229v11.266
	c167.299-86.088,404.688-85.539,426.29,37.793c7.279,40.857-15.647,83.35-56.754,107.8v31.997
	C546.647,239.985,597.229,181.403,582.576,109.591 M277.954,344.008c-115.609,10.667-236.068-6.123-252.932-96.535
	c-8.375-44.52,12.013-91.772,38.906-121.089v-15.697c-48.493,42.551-74.834,96.372-59.625,159.921
	c19.396,81.55,122.773,127.711,280.595,112.341c62.488-6.014,144.266-26.142,201.02-57.367V281.22
	C434.341,312.011,349.037,337.45,277.954,344.008z"/>
<path fill="#127CC1" d="M476.659,90.121h-30.306v134.988c0,15.854,7.606,29.643,30.306,31.829"/>
<path fill="#127CC1" d="M115.615,139.454H85.307v88.167c0,15.86,7.606,29.644,30.308,31.829"/>
<rect x="85.307" y="94.223" fill="#127CC1" width="30.308" height="28.716"/>
<path fill="#127CC1" d="M297.238,258.031c-24.574,0-34.934-17.067-34.934-33.911V107.022h29.977v32.432h22.701v24.284h-22.701
	v58.577c0,6.889,3.306,10.667,10.467,10.667h12.234v25.049H297.238"/>
<path fill="#127CC1" d="M376.92,162.263c-10.247,0-18.18,5.304-21.488,12.47c-1.983,4.319-2.646,7.602-2.973,12.91h46.398
	C398.195,174.678,392.35,162.263,376.92,162.263 M352.459,208.097c0,15.37,9.693,26.686,26.666,26.686
	c13.338,0,19.95-3.719,27.665-11.315l18.516,17.774c-11.903,11.701-24.356,18.813-46.398,18.813
	c-28.763,0-56.318-15.697-56.318-61.423c0-39.104,24.025-61.199,55.656-61.199c32.071,0,50.473,25.869,50.473,59.835v10.83H352.459"
	/>
<path fill="#127CC1" d="M197.281,163.738c8.815,0,12.453,4.322,12.453,11.377v83.079h30.088v-83.188
	c0-16.901-9.038-35.553-35.377-35.553h-62.048v118.74h29.977v-94.456"/>
<path fill="#127CC1" d="M511.599,99.092c0-1.479-0.771-1.971-2.755-1.971c-0.217,0-0.88,0-1.434,0c-0.218,0-0.44,0-0.44,0v4.213
	c0.223,0,1.657,0,1.874,0c1.983,0,2.755-0.603,2.755-1.971 M514.576,109.374h-2.206c-0.223,0-0.44-0.109-0.44-0.329l-3.086-5.141
	c0-0.109-0.331-0.218-0.439-0.218c0,0-0.549,0-0.886,0c-0.218,0-0.435,0-0.549,0v5.141c0,0.329-0.223,0.546-0.44,0.546h-2.097
	c-0.218,0-0.435-0.218-0.435-0.546V95.811c0-0.767,0.217-1.095,0.88-1.15c0.663-0.109,2.641-0.163,3.749-0.163
	c3.743,0,5.949,1.093,5.949,4.594v0.272c0,2.134-1.104,3.281-2.755,3.831l3.194,5.358c0,0.108,0,0.274,0,0.383
	C515.016,109.156,514.907,109.374,514.576,109.374z M509.284,92.146c-5.509,0-10.029,4.483-10.029,10.062
	c0,5.524,4.521,9.955,10.029,9.955c5.515,0,10.029-4.431,10.029-9.955C519.313,96.629,514.799,92.146,509.284,92.146z
	 M509.284,114.242c-6.721,0-12.121-5.415-12.121-12.035c0-6.671,5.4-12.086,12.121-12.086c6.612,0,12.013,5.415,12.013,12.086
	C521.297,108.827,515.896,114.242,509.284,114.242z"/>
</svg>
