<?xml version="1.0" encoding="UTF-8"?>
 <!DOCTYPE svg PUBLIC "-//W3C//DTD SVG 1.1//EN"
   "http://www.w3.org/Graphics/SVG/1.1/DTD/svg11.dtd">
 <svg xmlns="http://www.w3.org/2000/svg" version="1.1"
   xmlns:xlink="http://www.w3.org/1999/xlink" width="475.21866" height="114.45032">
  <path d="M 367.03125,30.356569 C 347.56696,30.356569 342.01338,50.343179 342.90625,58.200319 342.90625,62.664599 343.9784,87.512259 367.90625,87.325319 390.58482,87.146749 391.6952,62.857999 391.65625,58.575319 391.61725,54.464479 391.31696,30.35657 367.03125,30.356569 z M 367.375,36.794069 C 369.6058,36.794069 382.375,37.128899 382.375,58.200319 382.37499,79.271739 373.80357,81.419069 367.375,81.419069 360.94642,81.419059 352.5625,78.048529 352.5625,57.512819 352.5625,36.977109 364.96563,36.794069 367.375,36.794069 z" fill="#646464" />
  <path d="M 165.40625,30.544069 C 150.40625,30.544069 141.84375,39.825319 141.84375,39.825319 L 141.84375,110.16907 151.125,114.45032 151.125,82.669069 C 151.125,82.669069 157.56696,87.669059 168.28125,87.669069 178.99553,87.669069 189,76.619959 189,58.762819 189,40.905679 180.40624,30.544068 165.40625,30.544069 z M 164.34375,36.606569 C 171.84375,36.606569 179.15624,39.990499 179.15625,58.919069 179.15625,77.847639 170.9509,80.700309 164.34375,80.700319 157.73661,80.700319 151.3125,75.700309 151.3125,75.700319 L 151.125,75.544069 151.125,41.075319 C 151.125,41.075319 156.84375,36.606569 164.34375,36.606569 z" fill="#646464" />
  <path d="M 235.41964,31.785714 244.52679,31.785714 244.52679,84.642859 C 244.52679,84.642859 245.59821,98.571429 238.63393,105.71429 231.66964,112.85714 214.88393,114.10714 214.88393,114.10714 L 213.63393,108.92858 C 213.63393,108.92858 235.95536,107.32143 235.95536,89.821429 L 235.95536,82.678569 C 235.95536,82.678569 225.59821,87.142859 216.66964,87.142859 207.74107,87.142859 198.8125,81.428569 198.8125,70.892859 198.8125,60.357139 198.8125,33.571428 198.8125,33.571428 L 208.19048,31.058607 208.19048,69.107139 C 208.19048,69.107139 207.5625,80.714289 220.59821,80.714289 233.63393,80.714289 235.77679,75.714289 235.77679,75.714289 L 235.41964,31.785714 z" fill="#646464" />
  <path d="M 260.41964,16.964285 260.41964,16.964285 269.34821,14.107142 269.34821,31.785714 279.70536,31.785714 279.70536,37.678569 269.34821,37.678569 269.34821,73.035709 C 269.34821,73.035709 268.09821,81.785709 279.34821,81.785709 L 279.34821,87.142859 C 279.34821,87.142859 260.59821,87.321429 260.59821,74.642859 260.59821,61.964289 260.59821,37.499999 260.59821,37.499999 L 254.52679,37.499999 254.52679,31.785714 260.41964,31.785714 260.41964,16.964285 z" fill="#646464" />
  <path d="M 290.41964,2.5 299.16964,0 299.16964,37.857139 C 299.16964,37.857139 308.45536,31.428571 317.91964,31.428571 327.38393,31.428571 334.16964,39.821429 334.16964,45.535709 334.16964,51.249999 334.16964,86.249999 334.16964,86.249999 L 325.41964,86.249999 325.41964,49.821429 C 325.41964,49.821429 324.52679,37.321429 314.52679,37.321429 304.52679,37.321429 299.34822,44.285709 299.34822,44.285709 L 299.34822,86.428569 290.24107,86.428569 290.41964,2.5 z" fill="#646464" />
  <path d="M 400.59822,86.249999 409.52679,86.249999 409.52679,40.714289 C 409.52679,40.714289 413.09822,36.25 422.20536,36.25 431.3125,36.25 434.88393,44.464289 434.88393,46.607139 434.88393,48.749999 434.88393,86.249999 434.88393,86.249999 L 444.16964,86.249999 444.16964,43.571429 C 444.16964,43.571429 442.91964,30.535714 425.77679,30.357142 408.63393,30.178571 400.41964,39.642859 400.41964,39.642859 L 400.59822,86.249999 z" fill="#646464" />
  <path d="M 457.46866,24.559396 457.46866,14.457834 453.69522,14.457834 453.69522,13.106271 462.77335,13.106271 462.77335,14.457834 458.98428,14.457834 458.98428,24.559396 457.46866,24.559396 z M 464.28897,24.559396 464.28897,13.106271 466.57022,13.106271 469.28116,21.215646 C 469.53115,21.970857 469.71344,22.535961 469.82803,22.910959 469.95823,22.494294 470.16136,21.882316 470.43741,21.075021 L 473.1796,13.106271 475.21866,13.106271 475.21866,24.559396 473.75772,24.559396 473.75772,14.973459 470.4296,24.559396 469.06241,24.559396 465.74991,14.809396 465.74991,24.559396 464.28897,24.559396 z" fill="#646464" />
  <path d="M 54.8125,3.856569 C 26.780768,3.856569 28.53125,16.012819 28.53125,16.012819 L 28.5625,28.606569 55.3125,28.606569 55.3125,32.387819 17.9375,32.387819 C 17.9375,32.387819 0,30.353543 0,58.637819 0,86.922089 15.65625,85.919069 15.65625,85.919069 L 25,85.919069 25,72.794069 C 25,72.794069 24.496348,57.137819 40.40625,57.137819 56.31615,57.137819 66.9375,57.137819 66.9375,57.137819 66.9375,57.137819 81.84375,57.378779 81.84375,42.731569 81.84375,28.084363 81.84375,18.512819 81.84375,18.512819 81.84375,18.512817 84.10693,3.856569 54.8125,3.856569 z M 40.0625,12.325319 C 42.723929,12.325317 44.875,14.47639 44.875,17.137819 44.875002,19.799248 42.723929,21.950319 40.0625,21.950319 37.401071,21.950321 35.25,19.799248 35.25,17.137819 35.249998,14.47639 37.401071,12.325319 40.0625,12.325319 z" fill="#366994" />
  <path d="M 55.6086,113.70267 C 83.64034,113.70267 81.88985,101.54642 81.88985,101.54642 L 81.85865,88.952669 55.10865,88.952669 55.10865,85.171419 92.48365,85.171419 C 92.48365,85.171419 110.42115,87.205689 110.42115,58.921409 110.42116,30.637142 94.7649,31.640162 94.7649,31.640162 L 85.42115,31.640162 85.42115,44.765159 C 85.42115,44.765159 85.92481,60.421409 70.0149,60.421409 54.104998,60.421409 43.483648,60.421409 43.483648,60.421409 43.483648,60.421409 28.577398,60.180449 28.577398,74.827669 28.577398,89.474869 28.577398,99.046419 28.577398,99.046419 28.577398,99.046419 26.314218,113.70267 55.60865,113.70267 z M 70.3586,105.23392 C 67.69717,105.23392 65.5461,103.08285 65.5461,100.42142 65.5461,97.759989 67.69717,95.608919 70.3586,95.608919 73.02003,95.608919 75.1711,97.759989 75.1711,100.42142 75.17111,103.08285 73.02003,105.23392 70.3586,105.23392 z" fill="#ffc331" />
 </svg>